<?xml version="1.0" encoding="UTF-8"?>
<svg id="Layer_2" data-name="Layer 2" xmlns="http://www.w3.org/2000/svg" xmlns:xlink="http://www.w3.org/1999/xlink" viewBox="0 0 1128.24 764.56">
  <defs>
    <radialGradient id="radial-gradient" cx="549.15" cy="757.89" fx="549.15" fy="757.89" r="663.61" gradientUnits="userSpaceOnUse">
      <stop offset="0" stop-color="#9b83b4"/>
      <stop offset=".78" stop-color="#51267d"/>
    </radialGradient>
  </defs>
  <g id="Layer_1-2" data-name="Layer 1">
    <rect x="0" y="235.68" width="1128.24" height="386.82" rx="25" ry="25" style="fill: #868585; opacity: .15;"/>
  </g>
  <g id="MODALS">
    <rect x="40.11" y="68.81" width="1038.42" height="695.75" rx="25" ry="25" style="fill: url(#radial-gradient);"/>
    <g>
      <rect x="358.1" y="100.94" width="403.68" height="229.64" rx="27.34" ry="27.34" style="fill: #51267d;"/>
      <circle cx="559.23" cy="100.04" r="100.04" style="fill: #51267d;"/>
      <g>
        <path d="m689.45,277.9h-259.38c-3.33,0-6.04-2.7-6.04-6.04v-140.87c0-9.66,7.85-17.51,17.51-17.51h11.7c3.33,0,6.04,2.7,6.04,6.04s-2.7,6.04-6.04,6.04h-11.7c-3,0-5.43,2.44-5.43,5.43v134.84h247.31v-134.84c0-2.99-2.44-5.43-5.43-5.43h-13.08c-3.33,0-6.04-2.7-6.04-6.04s2.7-6.04,6.04-6.04h13.08c9.65,0,17.51,7.85,17.51,17.51v140.87c0,3.34-2.7,6.04-6.04,6.04Z" style="fill: #fff;"/>
        <path d="m697.42,315.32h-275.32c-6.49,0-11.77-5.28-11.77-11.77v-25.96c0-6.49,5.28-11.77,11.77-11.77h275.32c6.49,0,11.77,5.28,11.77,11.77v25.96c0,6.49-5.28,11.77-11.77,11.77Zm-.3-37.73l-275.03.3.3,25.66,274.73-.3v-25.66Z" style="fill: #fff;"/>
        <path d="m577.87,296.61h-36.21c-3.33,0-6.04-2.7-6.04-6.04s2.7-6.04,6.04-6.04h36.21c3.33,0,6.04,2.7,6.04,6.04s-2.7,6.04-6.04,6.04Z" style="fill: #fff;"/>
        <g>
          <path d="m559.76,225.52c-2.2,0-4.23-1.2-5.29-3.13l-19.55-35.64c-22.72-6.63-41.99-22.25-53.15-43.2-.76-1.41-1.45-2.86-2.15-4.31-13.9-29.9-10.11-64.7,9.87-90.85,8.67-11.48,19.78-20.44,33-26.61,44.19-20.54,96.87-1.3,117.43,42.89h0c13.16,28.26,10.29,61.79-7.48,87.51-8.8,12.89-21.05,23.24-35.42,29.91-4.92,2.3-10.21,4.16-15.74,5.52l-16.04,34.43c-.96,2.06-3,3.41-5.27,3.48-.06,0-.13,0-.2,0Zm-.14-199.9c-10.75,0-21.67,2.28-32.04,7.1-11.4,5.32-20.99,13.04-28.48,22.97-17.27,22.6-20.53,52.64-8.55,78.42.58,1.23,1.18,2.49,1.85,3.74,10.01,18.78,27.53,32.59,48.09,37.92,1.61.42,2.98,1.48,3.78,2.94l15.05,27.43,12.26-26.31c.8-1.72,2.37-2.96,4.23-3.35,5.71-1.2,11.13-2.99,16.11-5.32,12.41-5.77,22.98-14.69,30.57-25.81,15.36-22.24,17.84-51.19,6.48-75.59h0c-12.92-27.78-40.55-44.14-69.35-44.14Z" style="fill: #08a9b7;"/>
          <g>
            <path d="m561.4,141.81c-.94,0-1.89-.02-2.84-.04-18.13-.54-36.27-6.17-35.93-17.52l.46-26.37c.06-3.33,3.05-5.83,6.14-5.93,3.33.06,5.99,2.81,5.93,6.14l-.45,25.77c1.89,1.95,10.45,5.43,24.21,5.84,13.75.47,22.46-2.54,24.49-4.37l.45-25.64c.06-3.34,3.09-6.11,6.14-5.93,3.33.06,5.99,2.81,5.93,6.14l-.47,26.45c-.12,4-2.53,9.39-13.37,12.74-5.72,1.77-12.99,2.72-20.7,2.72Zm-26.7-17.32v.05-.05Z" style="fill: #d06578;"/>
            <path d="m559.15,117.21c-.85,0-1.7-.18-2.48-.54l-48.49-21.9c-2.19-.98-3.58-3.18-3.55-5.58.03-2.4,1.48-4.56,3.69-5.49l49.76-20.95c1.62-.67,3.44-.63,5.01.15l48.43,23.87c2.15,1.06,3.47,3.3,3.36,5.69-.11,2.39-1.64,4.5-3.88,5.36l-49.71,18.98c-.7.27-1.43.39-2.15.39Zm-33.39-27.75l33.59,15.17,34.43-13.14-33.55-16.54-34.47,14.51Z" style="fill: #d06578;"/>
          </g>
        </g>
      </g>
    </g>
  </g>
</svg>