<?xml version="1.0" encoding="UTF-8"?>
<svg id="Layer_2" data-name="Layer 2" xmlns="http://www.w3.org/2000/svg" viewBox="0 0 240.41 247.92">
  <g id="MODALS">
    <g>
      <g>
        <path d="m9.58,128.98c-.05,0-.11,0-.16,0-2.02-.09-3.58-1.79-3.49-3.81,1.54-35.37,19.09-67.88,48.16-89.2,28.63-20.99,64.86-27.73,99.39-18.48,1.95.52,3.1,2.53,2.58,4.47-.52,1.95-2.52,3.12-4.47,2.58-32.37-8.67-66.34-2.37-93.18,17.31C31.14,61.86,14.67,92.34,13.22,125.49c-.09,1.96-1.7,3.49-3.65,3.49Z" style="fill: #fff;"/>
        <path d="m123.41,247.92c-14.59,0-29.27-2.69-43.22-8.15-34.9-13.66-60.51-42.36-70.25-78.73-.52-1.95.63-3.95,2.58-4.47,1.96-.52,3.95.63,4.47,2.58,9.14,34.11,33.14,61.01,65.86,73.82,32.6,12.76,69.42,9.43,98.5-8.92,1.7-1.07,3.96-.56,5.04,1.14,1.08,1.71.57,3.96-1.14,5.04-18.57,11.72-40.1,17.7-61.84,17.7Z" style="fill: #fff;"/>
        <path d="m203.44,214.65c-.93,0-1.87-.36-2.58-1.07-1.43-1.43-1.43-3.74,0-5.16,23.91-23.91,35.39-56.76,31.51-90.12-3.94-33.86-22.53-63.37-50.99-80.96-1.72-1.06-2.25-3.31-1.19-5.03,1.06-1.72,3.31-2.25,5.03-1.19,30.38,18.76,50.21,50.23,54.42,86.33,4.14,35.59-8.1,70.63-33.6,96.13-.71.71-1.65,1.07-2.58,1.07Z" style="fill: #fff;"/>
        <path d="m133.56,35.34c-1.28,0-2.52-.67-3.19-1.86-.99-1.76-.36-3.99,1.4-4.98l15.61-8.77-8.97-14.12c-1.08-1.7-.58-3.96,1.12-5.04,1.7-1.08,3.96-.58,5.04,1.12l11.04,17.37c.54.84.71,1.88.46,2.85-.24.97-.88,1.8-1.75,2.29l-18.97,10.67c-.57.32-1.18.47-1.79.47Z" style="fill: #fff;"/>
        <path d="m203.44,214.65c-.97,0-1.9-.38-2.58-1.07-.71-.71-1.1-1.68-1.07-2.68l.59-21.76c.06-2.02,1.71-3.49,3.75-3.55,2.02.06,3.61,1.73,3.55,3.75l-.48,17.9,16.72-.45c2.02.1,3.69,1.54,3.75,3.55.05,2.02-1.54,3.69-3.55,3.75l-20.57.55h-.1Z" style="fill: #fff;"/>
        <path d="m3.65,181.84c-.59,0-1.18-.14-1.74-.44-1.77-.96-2.43-3.18-1.47-4.95l9.81-18.1c.48-.88,1.29-1.53,2.26-1.79.96-.26,2-.11,2.86.41l18.55,11.39c1.72,1.06,2.26,3.31,1.2,5.03-1.06,1.72-3.31,2.25-5.03,1.2l-15.27-9.37-7.97,14.71c-.66,1.22-1.91,1.91-3.21,1.91Z" style="fill: #fff;"/>
      </g>
      <g>
        <g>
          <path d="m123.86,62.75c-.98,0-1.9-.37-2.59-1.06-.33-.37-.62-.77-.8-1.21-.18-.44-.26-.91-.26-1.39s.07-.95.26-1.39c.18-.48.48-.84.8-1.21.19-.15.37-.33.55-.44.22-.15.4-.26.66-.33.22-.11.44-.19.66-.22,1.24-.25,2.45.15,3.28.99.37.36.62.77.8,1.21.19.43.29.91.29,1.39s-.11.95-.29,1.39c-.18.44-.43.84-.8,1.21-.66.69-1.57,1.06-2.56,1.06Z" style="fill: #fff;"/>
          <path d="m123.86,210.78c-.98,0-1.9-.4-2.59-1.09-.33-.33-.62-.73-.8-1.17-.18-.44-.26-.91-.26-1.39s.07-.95.26-1.39c.18-.48.48-.87.8-1.21,1.02-1.02,2.63-1.35,3.98-.8.44.18.84.47,1.17.8.37.33.62.73.8,1.21.19.44.29.91.29,1.39s-.11.95-.29,1.39c-.18.44-.43.84-.8,1.17-.33.37-.73.62-1.17.81-.44.18-.91.29-1.39.29Z" style="fill: #fff;"/>
        </g>
        <g>
          <path d="m123.86,62.75c-.98,0-1.9-.37-2.59-1.06-.33-.37-.62-.77-.8-1.21-.18-.44-.26-.91-.26-1.39s.07-.95.26-1.39c.18-.48.48-.84.8-1.21.19-.15.37-.33.55-.44.22-.15.4-.26.66-.33.22-.11.44-.19.66-.22,1.24-.25,2.45.15,3.28.99.37.36.62.77.8,1.21.19.43.29.91.29,1.39s-.11.95-.29,1.39c-.18.44-.43.84-.8,1.21-.66.69-1.57,1.06-2.56,1.06Z" style="fill: #fff;"/>
          <path d="m123.86,210.78c-.98,0-1.9-.4-2.59-1.09-.33-.33-.62-.73-.8-1.17-.18-.44-.26-.91-.26-1.39s.07-.95.26-1.39c.18-.48.48-.87.8-1.21,1.02-1.02,2.63-1.35,3.98-.8.44.18.84.47,1.17.8.37.33.62.73.8,1.21.19.44.29.91.29,1.39s-.11.95-.29,1.39c-.18.44-.43.84-.8,1.17-.33.37-.73.62-1.17.81-.44.18-.91.29-1.39.29Z" style="fill: #fff;"/>
        </g>
        <g>
          <path d="m197.87,136.75c-.48,0-.95-.07-1.39-.26-.44-.18-.84-.44-1.21-.8-.33-.33-.59-.73-.77-1.17-.18-.48-.29-.91-.29-1.42,0-.95.4-1.9,1.06-2.56.87-.88,2.12-1.28,3.32-1.02.22.07.44.15.66.22.22.07.44.22.66.33.18.15.36.29.55.47.69.66,1.06,1.61,1.06,2.56,0,.51-.07.95-.26,1.42-.18.44-.47.84-.8,1.17-.7.69-1.61,1.06-2.59,1.06Z" style="fill: #fff;"/>
          <path d="m49.83,136.75c-.95,0-1.9-.36-2.56-1.06-.36-.33-.62-.73-.8-1.17-.18-.48-.29-.91-.29-1.42,0-.95.4-1.9,1.1-2.56,1.02-1.02,2.63-1.39,3.98-.8.44.18.84.44,1.17.8.69.66,1.06,1.61,1.06,2.56,0,.51-.07.95-.26,1.42-.18.44-.44.84-.8,1.17-.7.69-1.61,1.06-2.59,1.06Z" style="fill: #fff;"/>
        </g>
      </g>
      <path d="m124.24,140.26c-.93,0-1.87-.36-2.58-1.07l-54.12-54.12c-1.43-1.43-1.43-3.74,0-5.16,1.43-1.43,3.74-1.43,5.16,0l51.54,51.54,31.96-31.96c1.43-1.43,3.74-1.43,5.16,0,1.43,1.43,1.43,3.74,0,5.17l-34.54,34.54c-.71.71-1.65,1.07-2.58,1.07Z" style="fill: #fff;"/>
    </g>
  </g>
</svg>