<?xml version="1.0" encoding="UTF-8"?>
<svg id="Layer_2" data-name="Layer 2" xmlns="http://www.w3.org/2000/svg" viewBox="0 0 52.58 52.58">
  <g id="Layer_1-2" data-name="Layer 1">
    <path d="m26.29,0C11.79,0,0,11.79,0,26.29s11.79,26.29,26.29,26.29,26.29-11.79,26.29-26.29S40.78,0,26.29,0Zm.73,7.81c3.2,0,5.81,2.61,5.81,5.81s-2.61,5.81-5.81,5.81-5.81-2.61-5.81-5.81,2.61-5.81,5.81-5.81Zm7.95,34.78c-.46.49-.95.59-1.28.59h-13.34c-.33,0-.83-.1-1.28-.59-.35-.38-.53-.88-.53-1.47s.17-1.12.52-1.51c.46-.52.96-.63,1.3-.63h1.52v-11.12h-1.52c-.33,0-.83-.1-1.28-.59-.35-.38-.53-.88-.53-1.48s.17-1.11.52-1.51c.46-.52.96-.63,1.3-.63h11.18c.36,0,.65.29.65.65v14.68h1.51c.34,0,.84.11,1.3.63.35.39.52.9.52,1.51s-.18,1.09-.54,1.47Z" style="fill: #fff;"/>
  </g>
</svg>