<?xml version="1.0" encoding="UTF-8"?>
<svg id="Layer_2" data-name="Layer 2" xmlns="http://www.w3.org/2000/svg" viewBox="0 0 57.98 48.79">
  <g id="MODALS">
    <path d="m24.61,9.05c-4.24,2.17-7.42,4.64-9.55,7.42-2.12,2.78-3.18,6.29-3.18,10.54.28-.09.75-.14,1.41-.14,3.02,0,5.59.92,7.71,2.76,2.12,1.84,3.18,4.36,3.18,7.57,0,3.58-1.04,6.41-3.11,8.49-2.08,2.07-4.67,3.11-7.78,3.11-4.43,0-7.76-1.63-9.97-4.88-2.22-3.25-3.32-7.8-3.32-13.65,0-6.69,1.65-12.59,4.95-17.68C8.25,7.5,13.29,3.3,20.08,0l4.53,9.05Zm33.37,0c-4.24,2.17-7.42,4.64-9.55,7.42-2.12,2.78-3.18,6.29-3.18,10.54.28-.09.75-.14,1.41-.14,3.02,0,5.59.92,7.71,2.76,2.12,1.84,3.18,4.36,3.18,7.57,0,3.58-1.04,6.41-3.11,8.49-2.08,2.07-4.67,3.11-7.78,3.11-4.43,0-7.76-1.63-9.97-4.88-2.22-3.25-3.32-7.8-3.32-13.65,0-6.69,1.65-12.59,4.95-17.68,3.3-5.09,8.34-9.29,15.13-12.59l4.53,9.05Z" style="fill: #fff;"/>
  </g>
</svg>