<?xml version="1.0" encoding="UTF-8"?>
<svg id="Layer_2" data-name="Layer 2" xmlns="http://www.w3.org/2000/svg" viewBox="0 0 179.35 118.63">
  <g id="GUIDES">
    <g>
      <polygon points="10.14 109.31 10.14 116.36 8.9 116.36 8.9 109.31 7.01 109.31 7.01 108.14 12.02 108.14 12.02 109.31 10.14 109.31" style="fill: #868585;"/>
      <polygon points="15.18 111.36 18.73 111.36 18.73 108.14 19.97 108.14 19.97 116.36 18.73 116.36 18.73 112.52 15.18 112.52 15.18 116.36 13.94 116.36 13.94 108.14 15.18 108.14 15.18 111.36" style="fill: #868585;"/>
      <polygon points="27.29 109.31 24 109.31 24 111.28 27.19 111.28 27.19 112.45 24 112.45 24 115.19 27.29 115.19 27.29 116.36 22.76 116.36 22.76 108.14 27.29 108.14 27.29 109.31" style="fill: #868585;"/>
      <path d="m38.56,109.36l-1.01.6c-.19-.33-.37-.54-.54-.64-.18-.11-.41-.17-.69-.17-.34,0-.63.1-.86.29-.23.19-.34.43-.34.72,0,.4.3.72.89.97l.82.34c.67.27,1.15.6,1.46.99.31.39.46.87.46,1.43,0,.76-.25,1.38-.76,1.87-.51.5-1.14.75-1.89.75-.71,0-1.3-.21-1.77-.64-.46-.42-.74-1.02-.86-1.79l1.26-.28c.06.48.16.82.3,1,.26.35.63.53,1.12.53.39,0,.71-.13.96-.39.26-.26.38-.59.38-.98,0-.16-.02-.31-.07-.44-.04-.13-.11-.26-.21-.37-.09-.11-.22-.22-.36-.31-.15-.1-.33-.19-.53-.28l-.79-.33c-1.12-.47-1.69-1.17-1.69-2.09,0-.62.24-1.13.71-1.55.47-.42,1.06-.63,1.76-.63.95,0,1.69.46,2.22,1.38" style="fill: #868585;"/>
      <path d="m47.16,108.58v1.47c-.72-.6-1.46-.9-2.23-.9-.84,0-1.56.3-2.13.91-.58.6-.87,1.34-.87,2.21s.29,1.59.87,2.18c.58.59,1.29.89,2.14.89.44,0,.81-.07,1.11-.21.17-.07.35-.17.53-.29.18-.12.38-.27.58-.44v1.5c-.71.4-1.45.6-2.24.6-1.17,0-2.18-.41-3.01-1.23-.83-.83-1.24-1.82-1.24-2.99,0-1.05.35-1.98,1.04-2.8.85-1,1.95-1.51,3.3-1.51.74,0,1.45.2,2.14.6" style="fill: #868585;"/>
      <rect x="49.54" y="108.14" width="1.24" height="8.22" style="fill: #868585;"/>
      <polygon points="58.11 109.31 54.82 109.31 54.82 111.28 58.02 111.28 58.02 112.45 54.82 112.45 54.82 115.19 58.11 115.19 58.11 116.36 53.58 116.36 53.58 108.14 58.11 108.14 58.11 109.31" style="fill: #868585;"/>
      <polygon points="60.56 116.36 60.56 107.58 66.55 113.85 66.55 108.14 67.79 108.14 67.79 116.86 61.8 110.6 61.8 116.36 60.56 116.36" style="fill: #868585;"/>
      <path d="m76.72,108.58v1.47c-.72-.6-1.46-.9-2.22-.9-.84,0-1.56.3-2.13.91-.58.6-.87,1.34-.87,2.21s.29,1.59.87,2.18c.58.59,1.29.89,2.14.89.44,0,.81-.07,1.11-.21.17-.07.35-.17.53-.29.18-.12.37-.27.58-.44v1.5c-.71.4-1.45.6-2.24.6-1.17,0-2.18-.41-3.01-1.23-.83-.83-1.24-1.82-1.24-2.99,0-1.05.35-1.98,1.04-2.8.85-1,1.95-1.51,3.3-1.51.74,0,1.45.2,2.14.6" style="fill: #868585;"/>
      <polygon points="83.64 109.31 80.35 109.31 80.35 111.28 83.54 111.28 83.54 112.45 80.35 112.45 80.35 115.19 83.64 115.19 83.64 116.36 79.11 116.36 79.11 108.14 83.64 108.14 83.64 109.31" style="fill: #868585;"/>
      <path d="m94.01,112.01c.25.32.37.69.37,1.13,0,.75-.33,1.49-.99,2.21-.68.75-1.42,1.13-2.19,1.13-.49,0-.88-.14-1.18-.43-.29-.28-.44-.68-.44-1.2,0-.78.33-1.52.99-2.23.67-.73,1.4-1.09,2.19-1.09.6,0,1.02.16,1.26.48m-3.3,3.94c.15.19.36.29.65.29.58,0,1.09-.44,1.54-1.31.38-.75.57-1.44.57-2.07,0-.27-.03-.48-.1-.64-.12-.31-.35-.46-.68-.46-.54,0-1.05.41-1.53,1.22-.45.76-.67,1.51-.67,2.24,0,.29.07.54.22.73" style="fill: #868585;"/>
      <path d="m100.05,109.97c-.08.1-.19.15-.32.15-.12,0-.22-.04-.3-.12-.08-.08-.12-.17-.12-.27,0-.07.03-.19.1-.37,0-.05-.02-.09-.07-.12-.04-.03-.09-.05-.15-.05-.27,0-.49.29-.67.86-.1.33-.21.89-.34,1.67h1.19l-.07.36h-1.21l-1.02,3.48c-.22.92-.5,1.66-.87,2.23-.36.57-.83.85-1.39.85-.26,0-.47-.07-.64-.21-.17-.14-.25-.29-.25-.46,0-.11.03-.21.1-.3.07-.09.17-.14.31-.14.12,0,.22.04.31.12.08.08.13.18.13.3,0,.06-.02.13-.06.19-.04.07-.06.11-.06.14,0,.03.02.06.06.08.04.02.09.03.16.03.3,0,.56-.24.77-.71.11-.25.21-.59.3-1.03l1.26-4.57h-.98l.07-.36h1.03c.19-.83.41-1.44.65-1.84.36-.61.8-.92,1.33-.92.24,0,.44.07.6.21.16.14.24.3.24.47,0,.11-.04.22-.12.32" style="fill: #868585;"/>
      <path d="m105.8,113.02v3.34h-1.24v-8.22h1.4c.69,0,1.21.05,1.56.14.35.1.67.28.94.54.47.46.71,1.04.71,1.75,0,.75-.25,1.35-.76,1.79-.5.44-1.18.66-2.04.66h-.57Zm0-1.15h.46c1.14,0,1.71-.44,1.71-1.31s-.59-1.27-1.76-1.27h-.41v2.59Z" style="fill: #868585;"/>
      <path d="m110.86,112.21c0-1.16.42-2.15,1.27-2.98.84-.83,1.86-1.25,3.04-1.25s2.17.42,3.01,1.26c.84.84,1.26,1.84,1.26,3.02s-.42,2.18-1.27,3.01c-.85.83-1.87,1.24-3.07,1.24-1.06,0-2.01-.37-2.86-1.1-.93-.81-1.39-1.88-1.39-3.19m1.25.01c0,.91.31,1.65.92,2.24.61.59,1.31.88,2.1.88.86,0,1.59-.3,2.18-.89.59-.6.89-1.34.89-2.2s-.29-1.61-.88-2.2c-.58-.6-1.3-.89-2.16-.89s-1.58.3-2.17.89c-.59.59-.88,1.31-.88,2.18" style="fill: #868585;"/>
      <path d="m126.47,109.36l-1.01.6c-.19-.33-.37-.54-.54-.64-.18-.11-.41-.17-.69-.17-.34,0-.63.1-.86.29-.23.19-.34.43-.34.72,0,.4.3.72.89.97l.82.34c.67.27,1.15.6,1.46.99.31.39.46.87.46,1.43,0,.76-.25,1.38-.76,1.87-.51.5-1.14.75-1.89.75-.71,0-1.3-.21-1.77-.64-.46-.42-.74-1.02-.86-1.79l1.26-.28c.06.48.16.82.3,1,.26.35.63.53,1.12.53.39,0,.71-.13.96-.39.26-.26.38-.59.38-.98,0-.16-.02-.31-.07-.44-.04-.13-.11-.26-.21-.37-.09-.11-.22-.22-.36-.31-.15-.1-.33-.19-.53-.28l-.79-.33c-1.12-.47-1.69-1.17-1.69-2.09,0-.62.24-1.13.71-1.55.47-.42,1.06-.63,1.76-.63.95,0,1.69.46,2.22,1.38" style="fill: #868585;"/>
      <path d="m133.64,109.36l-1.01.6c-.19-.33-.37-.54-.54-.64-.18-.11-.41-.17-.69-.17-.34,0-.63.1-.86.29-.23.19-.34.43-.34.72,0,.4.3.72.89.97l.82.34c.67.27,1.16.6,1.46.99.31.39.46.87.46,1.43,0,.76-.25,1.38-.76,1.87-.51.5-1.14.75-1.89.75-.71,0-1.3-.21-1.77-.64-.46-.42-.74-1.02-.86-1.79l1.26-.28c.06.48.16.82.3,1,.26.35.63.53,1.12.53.39,0,.71-.13.96-.39.26-.26.38-.59.38-.98,0-.16-.02-.31-.07-.44-.04-.13-.11-.26-.21-.37-.09-.11-.22-.22-.36-.31-.15-.1-.33-.19-.53-.28l-.79-.33c-1.12-.47-1.69-1.17-1.69-2.09,0-.62.24-1.13.71-1.55.47-.42,1.06-.63,1.76-.63.95,0,1.69.46,2.22,1.38" style="fill: #868585;"/>
      <rect x="136.17" y="108.14" width="1.24" height="8.22" style="fill: #868585;"/>
      <path d="m140.2,116.36v-8.22h1.23c.55,0,.99.04,1.31.13.33.08.61.23.84.43.23.21.41.47.55.78.14.32.21.64.21.96,0,.59-.23,1.09-.68,1.5.44.15.78.41,1.03.78.26.37.38.8.38,1.29,0,.64-.23,1.18-.68,1.63-.27.27-.58.46-.92.57-.37.1-.84.15-1.4.15h-1.88Zm1.24-4.69h.39c.46,0,.8-.1,1.01-.31.21-.2.32-.5.32-.9s-.11-.68-.33-.88c-.22-.2-.54-.3-.96-.3h-.44v2.39Zm0,3.52h.77c.56,0,.97-.11,1.23-.33.28-.24.41-.54.41-.9s-.13-.65-.4-.89c-.26-.24-.72-.36-1.39-.36h-.63v2.49Z" style="fill: #868585;"/>
      <rect x="147.46" y="108.14" width="1.24" height="8.22" style="fill: #868585;"/>
      <polygon points="152.73 108.14 152.73 115.19 155.15 115.19 155.15 116.36 151.49 116.36 151.49 108.14 152.73 108.14" style="fill: #868585;"/>
      <rect x="157.14" y="108.14" width="1.24" height="8.22" style="fill: #868585;"/>
      <polygon points="163.44 109.31 163.44 116.36 162.2 116.36 162.2 109.31 160.31 109.31 160.31 108.14 165.33 108.14 165.33 109.31 163.44 109.31" style="fill: #868585;"/>
      <polygon points="169.44 112.81 166.76 108.14 168.19 108.14 170.07 111.42 171.95 108.14 173.38 108.14 170.68 112.81 170.68 116.36 169.44 116.36 169.44 112.81" style="fill: #868585;"/>
      <polygon points="116.48 45.52 89.07 0 61.66 45.52 116.48 45.52" style="fill: #542075;"/>
      <polygon points="37.55 85.56 32.23 94.4 145.91 94.4 140.59 85.56 37.55 85.56" style="fill: #542075;"/>
      <path d="m31.8,52.23c-2.32,0-4.82,7.5-8.4,15.46-2.37,5.23-4.29,10.23-5.05,11.75-.89-.09-1.79-.18-2.72-.18-1.07,0-2.19.09-3.31.18-.67-1.88-2.68-7.46-4.96-13.09-2.72-6.7-5.14-14.03-7.37-14.12v-.4c2.28.09,4.51.18,6.75.18,1.61,0,3.22-.09,4.78-.18v.4c-.58.18-1.21.22-1.21,1.61,0,3.53,6.83,19.07,7.55,21.17.98-2.46,6.66-15.28,6.66-20.73,0-1.52-.62-1.88-1.56-2.06v-.4c1.52.09,3.08.18,4.65.18,1.38,0,2.81-.09,4.2-.18v.4Z" style="fill: #868585;"/>
      <path d="m57.14,72.65c-1.07,2.46-1.88,4.33-2.32,7.19-.4-.31-1.79-.45-3.39-.49-1.61-.09-3.44-.09-4.91-.09h-5.27c-3.57,0-6.43.13-6.88.18v-.4c2.19,0,2.19-3.8,2.19-13.4,0-10.32-.04-13.18-2.19-13.4v-.4c.94,0,2.05.04,3.39.09,1.39.04,2.99.09,4.91.09h3.84c4.2,0,7.33-.13,9.2-.58-.31,1.25-.76,3.08-.76,6.03v.89h-.94c0-4.11-3.39-4.73-8-4.73-.94,0-1.79.09-2.5.27-.36,2.86-.36,8.8-.36,9.92.58.04,1.25.13,2.55.13,4.87,0,5.45-1.07,5.63-3.26h.94c-.18,1.7-.31,3.4-.31,5.14,0,2.95,0,1.12.04,3.44h-.98c0-2.37-.94-3.66-5.32-3.66-1.07,0-1.97,0-2.55.04,0,1.43,0,8.49.13,11.44.98.05,1.96.18,2.99.18,7.1,0,8.58-2.23,10.05-5l.8.4Z" style="fill: #868585;"/>
      <path d="m60.96,79.03c2.19-.04,2.19-3.93,2.19-13.4s0-13.31-2.19-13.4v-.4c.85.04,1.83.09,2.77.13.94,0,1.88.05,2.59.05,1.34,0,2.9-.13,4.69-.31,1.74-.13,3.71-.27,5.72-.27,1.25,0,8.53,0,8.53,6.61,0,5.27-5.32,7.06-7.82,7.5.94,1.07,3.57,5.09,6.48,8.75,2.55,3.22,3.71,4.65,4.96,4.74v.4c-.45-.04-1.03-.09-1.56-.13-.58-.04-1.16-.04-1.74-.04-1.83,0-3.75.09-5.58.36-.54-.85-2.23-3.71-4.29-6.79-1.92-2.86-3.44-5.72-5.18-5.72-.63,0-.27,0-.76.09,0,7.41,0,11.84,2.28,11.84v.4c-1.79-.13-3.8-.18-5.54-.18-1.88,0-3.8.04-5.54.18v-.4Zm10.09-13.49c3.98,0,7.06-.94,7.06-5.81,0-4.06-2.41-6.3-5.27-6.3-.98,0-1.97.18-2.9.36-.18,3.22-.18,10.32-.18,11.7.36,0,.58.05,1.29.05" style="fill: #868585;"/>
      <path d="m113.3,58.04c0-3.13-1.79-3.98-6.61-3.98-.45,0-.85.05-1.29.09-.22,1.12-.22,5.63-.22,11.48,0,9.47,0,13.36,2.28,13.4v.4c-1.74-.13-3.66-.18-5.54-.18s-3.8.04-5.54.18v-.4c2.28-.04,2.28-3.93,2.28-13.4,0-5.85,0-10.36-.22-11.48-.45-.04-.85-.09-1.3-.09-5.23,0-6.97,2.37-7.64,5.32l-1.12-.27c.58-1.97,1.12-4.78,1.12-7.68.27.18,1.74.27,3.66.31,1.92.09,4.29.09,6.25.09h4.87c5.36,0,9.07-.04,10.94-.4-.27,1.3-.71,3.17-.71,6.97v.85h-1.21v-1.21Z" style="fill: #868585;"/>
      <path d="m141.18,72.65c-1.07,2.46-1.88,4.33-2.32,7.19-.4-.31-1.79-.45-3.4-.49-1.61-.09-3.44-.09-4.91-.09h-5.27c-3.57,0-6.43.13-6.88.18v-.4c2.19,0,2.19-3.8,2.19-13.4,0-10.32-.04-13.18-2.19-13.4v-.4c.94,0,2.05.04,3.39.09,1.38.04,2.99.09,4.91.09h3.84c4.2,0,7.33-.13,9.2-.58-.31,1.25-.76,3.08-.76,6.03v.89h-.94c0-4.11-3.39-4.73-8-4.73-.94,0-1.79.09-2.5.27-.36,2.86-.36,8.8-.36,9.92.58.04,1.25.13,2.55.13,4.87,0,5.45-1.07,5.63-3.26h.94c-.18,1.7-.31,3.4-.31,5.14,0,2.95,0,1.12.04,3.44h-.98c0-2.37-.94-3.66-5.32-3.66-1.07,0-1.97,0-2.55.04,0,1.43,0,8.49.13,11.44.98.05,1.97.18,2.99.18,7.1,0,8.58-2.23,10.05-5l.8.4Z" style="fill: #868585;"/>
      <path d="m142.74,79.03c.89,0,1.21-.36,1.92-.98,1.43-1.3,10.77-11.26,10.94-11.44-.85-1.03-4.33-5.58-8.58-11.03-2.46-3.13-2.64-3.04-3.84-3.35v-.4c2.28.09,4.56.18,6.83.18,1.92,0,3.98-.09,5.85-.18v.4c-.54.09-1.16.22-1.16.89,0,1.88,4.87,7.82,5.81,9.11,1.3-1.52,5.49-7.33,5.49-8.71,0-1.21-.8-1.21-1.47-1.3v-.4c1.61.05,3.22.18,4.87.18,1.47,0,3.04-.09,4.47-.18v.4c-.45.05-.98.22-1.61.49-1.07.45-6.92,7.46-10.59,10.9.89,1.07,5.41,6.75,10.01,12.24,2.41,2.9,2.68,3.04,3.8,3.17v.4c-2.41-.18-4.87-.18-7.28-.18-1.83,0-3.71.09-5.54.18v-.4c.62,0,1.16-.09,1.16-.85,0-1.43-6.08-8.49-7.15-10.19-1.16,1.43-5.98,7.59-5.98,10.01,0,1.03.89,1.03,1.47,1.03v.4c-1.52-.09-2.99-.18-4.51-.18-1.65,0-3.31.09-4.91.18v-.4Z" style="fill: #868585;"/>
      <path d="m177.68,54.86c-.98,0-1.68-.73-1.68-1.71,0-1.03.78-1.71,1.68-1.71s1.67.68,1.67,1.71-.78,1.71-1.67,1.71m0-3.11c-.74,0-1.31.58-1.31,1.41,0,.78.5,1.41,1.31,1.41.73,0,1.3-.57,1.3-1.41s-.57-1.41-1.3-1.41m-.34,2.38h-.31v-1.89h.72c.46,0,.69.16.69.54,0,.34-.21.48-.49.52l.53.83h-.35l-.49-.81h-.29v.81Zm.35-1.07c.23,0,.44-.02.44-.3,0-.23-.22-.26-.41-.26h-.37v.55h.35Z" style="fill: #868585;"/>
    </g>
  </g>
</svg>