<?xml version="1.0" encoding="UTF-8"?>
<svg id="Layer_2" data-name="Layer 2" xmlns="http://www.w3.org/2000/svg" viewBox="0 0 242.74 160.56">
  <g id="GUIDES">
    <g>
      <polygon points="13.72 147.94 13.72 157.48 12.04 157.48 12.04 147.94 9.48 147.94 9.48 146.36 16.27 146.36 16.27 147.94 13.72 147.94" style="fill: #fff;"/>
      <polygon points="20.55 150.71 25.35 150.71 25.35 146.36 27.03 146.36 27.03 157.48 25.35 157.48 25.35 152.29 20.55 152.29 20.55 157.48 18.87 157.48 18.87 146.36 20.55 146.36 20.55 150.71" style="fill: #fff;"/>
      <polygon points="36.94 147.94 32.48 147.94 32.48 150.61 36.81 150.61 36.81 152.19 32.48 152.19 32.48 155.9 36.94 155.9 36.94 157.48 30.8 157.48 30.8 146.36 36.94 146.36 36.94 147.94" style="fill: #fff;"/>
      <path d="m52.19,148.01l-1.36.81c-.25-.44-.5-.73-.73-.87-.24-.15-.55-.23-.93-.23-.47,0-.85.13-1.16.4-.31.26-.46.59-.46.98,0,.54.4.98,1.21,1.31l1.11.45c.9.36,1.56.81,1.98,1.34.42.53.63,1.17.63,1.94,0,1.02-.34,1.87-1.02,2.54-.69.67-1.54,1.01-2.56,1.01-.97,0-1.76-.29-2.39-.86-.62-.57-1.01-1.38-1.16-2.42l1.7-.37c.08.65.21,1.1.4,1.35.35.48.85.72,1.51.72.52,0,.96-.17,1.3-.53.35-.35.52-.79.52-1.33,0-.22-.03-.41-.09-.59-.06-.18-.15-.35-.28-.5-.13-.15-.29-.29-.49-.43-.2-.13-.44-.26-.72-.38l-1.07-.45c-1.52-.64-2.28-1.58-2.28-2.82,0-.83.32-1.53.96-2.09.64-.57,1.43-.85,2.38-.85,1.28,0,2.28.62,3,1.87" style="fill: #fff;"/>
      <path d="m63.83,146.95v1.98c-.97-.81-1.97-1.22-3.01-1.22-1.14,0-2.11.41-2.89,1.23-.79.82-1.18,1.82-1.18,3s.39,2.15,1.18,2.95c.79.8,1.75,1.2,2.9,1.2.59,0,1.09-.1,1.51-.29.23-.1.47-.23.72-.39.25-.16.51-.36.78-.59v2.03c-.96.55-1.97.82-3.03.82-1.59,0-2.95-.55-4.07-1.66-1.12-1.12-1.68-2.47-1.68-4.05,0-1.42.47-2.68,1.4-3.79,1.15-1.36,2.64-2.04,4.47-2.04,1,0,1.96.27,2.9.81" style="fill: #fff;"/>
      <rect x="67.05" y="146.36" width="1.68" height="11.12" style="fill: #fff;"/>
      <polygon points="78.65 147.94 74.19 147.94 74.19 150.61 78.52 150.61 78.52 152.19 74.19 152.19 74.19 155.9 78.65 155.9 78.65 157.48 72.51 157.48 72.51 146.36 78.65 146.36 78.65 147.94" style="fill: #fff;"/>
      <polygon points="81.96 157.48 81.96 145.6 90.07 154.09 90.07 146.36 91.75 146.36 91.75 158.16 83.64 149.7 83.64 157.48 81.96 157.48" style="fill: #fff;"/>
      <path d="m103.84,146.95v1.98c-.97-.81-1.97-1.22-3.01-1.22-1.14,0-2.11.41-2.89,1.23-.79.82-1.18,1.82-1.18,3s.39,2.15,1.18,2.95c.79.8,1.75,1.2,2.9,1.2.59,0,1.09-.1,1.51-.29.23-.1.47-.23.72-.39.25-.16.51-.36.78-.59v2.03c-.96.55-1.97.82-3.03.82-1.59,0-2.95-.55-4.07-1.66-1.12-1.12-1.68-2.47-1.68-4.05,0-1.42.47-2.68,1.4-3.79,1.15-1.36,2.64-2.04,4.47-2.04,1,0,1.96.27,2.9.81" style="fill: #fff;"/>
      <polygon points="113.2 147.94 108.74 147.94 108.74 150.61 113.07 150.61 113.07 152.19 108.74 152.19 108.74 155.9 113.2 155.9 113.2 157.48 107.06 157.48 107.06 146.36 113.2 146.36 113.2 147.94" style="fill: #fff;"/>
      <path d="m127.23,151.59c.33.43.5.94.5,1.52,0,1.02-.45,2.02-1.35,3-.93,1.02-1.92,1.53-2.97,1.53-.66,0-1.19-.19-1.59-.58-.4-.38-.6-.92-.6-1.62,0-1.05.45-2.06,1.34-3.02.91-.98,1.9-1.48,2.96-1.48.81,0,1.38.21,1.71.64m-4.46,5.33c.2.26.49.39.88.39.78,0,1.48-.59,2.08-1.77.51-1.01.77-1.95.77-2.8,0-.36-.04-.65-.13-.87-.17-.42-.48-.63-.92-.63-.73,0-1.42.55-2.07,1.65-.61,1.03-.91,2.04-.91,3.03,0,.4.1.73.3.99" style="fill: #fff;"/>
      <path d="m135.41,148.83c-.11.13-.25.2-.44.2-.16,0-.3-.05-.4-.16-.11-.1-.16-.23-.16-.37,0-.1.05-.26.14-.5,0-.06-.03-.12-.09-.17-.05-.04-.12-.07-.2-.07-.36,0-.66.39-.91,1.16-.14.45-.29,1.2-.46,2.26h1.61l-.1.48h-1.64l-1.38,4.71c-.29,1.24-.68,2.25-1.17,3.02-.49.77-1.12,1.15-1.88,1.15-.35,0-.64-.09-.86-.28-.22-.19-.34-.4-.34-.63,0-.14.05-.28.14-.4.09-.12.23-.19.42-.19.16,0,.3.05.41.16.11.11.17.24.17.4,0,.09-.03.17-.08.26-.05.09-.08.15-.08.18,0,.04.03.08.08.11.06.03.13.04.21.04.41,0,.75-.32,1.04-.96.15-.34.29-.8.41-1.39l1.71-6.18h-1.33l.1-.48h1.4c.26-1.12.56-1.95.88-2.49.49-.83,1.09-1.24,1.8-1.24.33,0,.6.09.82.28.22.19.33.4.33.64,0,.15-.05.3-.16.43" style="fill: #fff;"/>
      <path d="m143.19,152.97v4.52h-1.68v-11.12h1.9c.93,0,1.64.06,2.11.19.48.13.9.37,1.27.73.64.62.96,1.41.96,2.36,0,1.02-.34,1.82-1.02,2.42-.68.6-1.6.89-2.76.89h-.78Zm0-1.56h.63c1.54,0,2.31-.59,2.31-1.78s-.79-1.72-2.38-1.72h-.55v3.5Z" style="fill: #fff;"/>
      <path d="m150.04,151.87c0-1.57.57-2.91,1.72-4.03,1.14-1.12,2.52-1.69,4.12-1.69s2.94.57,4.08,1.7c1.14,1.13,1.71,2.49,1.71,4.08s-.57,2.96-1.71,4.07c-1.15,1.12-2.53,1.68-4.16,1.68-1.44,0-2.73-.5-3.87-1.49-1.26-1.1-1.89-2.54-1.89-4.32m1.69.02c0,1.23.41,2.24,1.24,3.03.82.79,1.77,1.19,2.84,1.19,1.17,0,2.15-.4,2.95-1.21.8-.82,1.2-1.81,1.2-2.98s-.4-2.18-1.19-2.98c-.79-.81-1.76-1.21-2.92-1.21s-2.13.4-2.93,1.21c-.8.8-1.2,1.78-1.2,2.95" style="fill: #fff;"/>
      <path d="m171.17,148.01l-1.36.81c-.26-.44-.5-.73-.73-.87-.24-.15-.55-.23-.93-.23-.47,0-.85.13-1.16.4-.31.26-.46.59-.46.98,0,.54.4.98,1.21,1.31l1.11.45c.9.36,1.56.81,1.98,1.34.42.53.63,1.17.63,1.94,0,1.02-.34,1.87-1.02,2.54-.69.67-1.54,1.01-2.56,1.01-.97,0-1.76-.29-2.39-.86-.62-.57-1.01-1.38-1.16-2.42l1.7-.37c.08.65.21,1.1.4,1.35.35.48.85.72,1.51.72.52,0,.96-.17,1.3-.53.35-.35.52-.79.52-1.33,0-.22-.03-.41-.09-.59-.06-.18-.15-.35-.28-.5-.13-.15-.29-.29-.49-.43-.2-.13-.44-.26-.72-.38l-1.07-.45c-1.52-.64-2.28-1.58-2.28-2.82,0-.83.32-1.53.96-2.09.64-.57,1.43-.85,2.38-.85,1.28,0,2.28.62,3,1.87" style="fill: #fff;"/>
      <path d="m180.87,148.01l-1.36.81c-.25-.44-.5-.73-.73-.87-.24-.15-.55-.23-.93-.23-.47,0-.85.13-1.16.4-.31.26-.46.59-.46.98,0,.54.4.98,1.21,1.31l1.11.45c.9.36,1.56.81,1.98,1.34.42.53.63,1.17.63,1.94,0,1.02-.34,1.87-1.02,2.54-.69.67-1.54,1.01-2.56,1.01-.97,0-1.76-.29-2.39-.86-.62-.57-1.01-1.38-1.16-2.42l1.7-.37c.08.65.21,1.1.4,1.35.35.48.85.72,1.51.72.52,0,.96-.17,1.3-.53.35-.35.52-.79.52-1.33,0-.22-.03-.41-.09-.59-.06-.18-.15-.35-.28-.5-.13-.15-.29-.29-.49-.43-.2-.13-.44-.26-.72-.38l-1.07-.45c-1.52-.64-2.28-1.58-2.28-2.82,0-.83.32-1.53.96-2.09.64-.57,1.43-.85,2.38-.85,1.28,0,2.28.62,3,1.87" style="fill: #fff;"/>
      <rect x="184.29" y="146.36" width="1.68" height="11.12" style="fill: #fff;"/>
      <path d="m189.75,157.48v-11.12h1.67c.74,0,1.34.06,1.78.17.45.11.82.31,1.13.58.31.28.56.64.74,1.06.19.43.28.86.28,1.3,0,.8-.3,1.47-.91,2.02.59.2,1.06.55,1.4,1.06.35.5.52,1.08.52,1.74,0,.87-.31,1.6-.92,2.2-.37.37-.79.63-1.25.77-.5.14-1.14.21-1.89.21h-2.54Zm1.68-6.35h.53c.62,0,1.08-.14,1.37-.41.29-.28.44-.68.44-1.22s-.15-.92-.45-1.19c-.3-.27-.73-.41-1.3-.41h-.59v3.23Zm0,4.77h1.04c.76,0,1.32-.15,1.67-.45.37-.32.56-.73.56-1.22s-.18-.88-.54-1.21c-.35-.32-.98-.48-1.88-.48h-.85v3.36Z" style="fill: #fff;"/>
      <rect x="199.58" y="146.36" width="1.68" height="11.12" style="fill: #fff;"/>
      <polygon points="206.71 146.36 206.71 155.9 209.99 155.9 209.99 157.48 205.04 157.48 205.04 146.36 206.71 146.36" style="fill: #fff;"/>
      <rect x="212.68" y="146.36" width="1.68" height="11.12" style="fill: #fff;"/>
      <polygon points="221.21 147.94 221.21 157.48 219.53 157.48 219.53 147.94 216.97 147.94 216.97 146.36 223.76 146.36 223.76 147.94 221.21 147.94" style="fill: #fff;"/>
      <polygon points="229.33 152.68 225.7 146.36 227.63 146.36 230.17 150.81 232.72 146.36 234.65 146.36 231.01 152.68 231.01 157.48 229.33 157.48 229.33 152.68" style="fill: #fff;"/>
      <polygon points="157.65 61.61 120.55 0 83.45 61.61 157.65 61.61" style="fill: #fff;"/>
      <polygon points="50.82 115.8 43.62 127.76 197.48 127.76 190.27 115.8 50.82 115.8" style="fill: #fff;"/>
      <path d="m43.05,70.69c-3.14,0-6.53,10.16-11.36,20.92-3.21,7.07-5.81,13.84-6.83,15.9-1.21-.12-2.42-.24-3.69-.24-1.45,0-2.96.12-4.47.24-.91-2.54-3.63-10.1-6.71-17.71-3.69-9.07-6.95-18.98-9.98-19.1v-.54c3.08.12,6.11.24,9.13.24,2.18,0,4.35-.12,6.47-.24v.54c-.79.24-1.63.3-1.63,2.18,0,4.78,9.25,25.82,10.22,28.66,1.33-3.32,9.01-20.68,9.01-28.05,0-2.06-.84-2.54-2.12-2.78v-.54c2.06.12,4.17.24,6.29.24,1.87,0,3.81-.12,5.68-.24v.54Z" style="fill: #fff;"/>
      <path d="m77.33,98.32c-1.45,3.33-2.54,5.86-3.14,9.73-.55-.42-2.42-.6-4.59-.66-2.18-.12-4.66-.12-6.65-.12h-7.13c-4.84,0-8.71.18-9.31.24v-.54c2.96,0,2.96-5.14,2.96-18.14,0-13.96-.06-17.83-2.96-18.14v-.54c1.27,0,2.78.06,4.59.12,1.88.06,4.05.12,6.65.12h5.2c5.68,0,9.91-.18,12.45-.79-.42,1.69-1.03,4.17-1.03,8.16v1.21h-1.27c0-5.56-4.59-6.41-10.82-6.41-1.27,0-2.42.12-3.39.36-.48,3.87-.48,11.91-.48,13.42.79.06,1.69.18,3.45.18,6.59,0,7.37-1.45,7.62-4.41h1.27c-.24,2.3-.42,4.6-.42,6.95,0,3.99,0,1.51.06,4.65h-1.33c0-3.2-1.27-4.96-7.19-4.96-1.45,0-2.66,0-3.45.06,0,1.94,0,11.49.18,15.48,1.33.06,2.66.24,4.05.24,9.61,0,11.61-3.02,13.6-6.77l1.09.55Z" style="fill: #fff;"/>
      <path d="m82.5,106.96c2.96-.06,2.96-5.32,2.96-18.14s0-18.02-2.96-18.14v-.54c1.15.06,2.48.12,3.75.18,1.27,0,2.54.06,3.51.06,1.81,0,3.93-.18,6.35-.42,2.36-.18,5.02-.36,7.74-.36,1.69,0,11.55,0,11.55,8.95,0,7.13-7.19,9.55-10.58,10.16,1.27,1.45,4.84,6.89,8.77,11.85,3.45,4.35,5.02,6.29,6.71,6.41v.54c-.61-.06-1.39-.12-2.12-.18-.79-.06-1.57-.06-2.36-.06-2.48,0-5.08.12-7.56.48-.72-1.15-3.02-5.02-5.8-9.19-2.6-3.87-4.66-7.74-7.01-7.74-.85,0-.36,0-1.03.12,0,10.04,0,16.02,3.08,16.02v.54c-2.42-.18-5.14-.24-7.5-.24-2.54,0-5.14.06-7.5.24v-.54Zm13.66-18.26c5.38,0,9.55-1.27,9.55-7.86,0-5.5-3.26-8.52-7.14-8.52-1.33,0-2.66.24-3.93.48-.24,4.35-.24,13.97-.24,15.84.48,0,.79.06,1.75.06" style="fill: #fff;"/>
      <path d="m153.35,78.55c0-4.23-2.42-5.38-8.95-5.38-.6,0-1.15.06-1.75.12-.3,1.51-.3,7.62-.3,15.54,0,12.82,0,18.08,3.08,18.14v.54c-2.36-.18-4.96-.24-7.5-.24s-5.14.06-7.5.24v-.54c3.08-.06,3.08-5.32,3.08-18.14,0-7.92,0-14.03-.3-15.54-.6-.06-1.15-.12-1.75-.12-7.07,0-9.43,3.2-10.34,7.19l-1.51-.36c.78-2.66,1.51-6.47,1.51-10.4.36.24,2.36.36,4.96.42,2.6.12,5.8.12,8.46.12h6.59c7.25,0,12.27-.06,14.81-.54-.36,1.75-.97,4.29-.97,9.43v1.15h-1.63v-1.63Z" style="fill: #fff;"/>
      <path d="m191.08,98.32c-1.45,3.33-2.54,5.86-3.14,9.73-.54-.42-2.42-.6-4.6-.66-2.18-.12-4.65-.12-6.65-.12h-7.14c-4.84,0-8.71.18-9.31.24v-.54c2.96,0,2.96-5.14,2.96-18.14,0-13.96-.06-17.83-2.96-18.14v-.54c1.27,0,2.78.06,4.59.12,1.87.06,4.05.12,6.65.12h5.2c5.68,0,9.91-.18,12.45-.79-.42,1.69-1.03,4.17-1.03,8.16v1.21h-1.27c0-5.56-4.59-6.41-10.82-6.41-1.27,0-2.42.12-3.39.36-.48,3.87-.48,11.91-.48,13.42.79.06,1.69.18,3.45.18,6.59,0,7.38-1.45,7.62-4.41h1.27c-.24,2.3-.42,4.6-.42,6.95,0,3.99,0,1.51.06,4.65h-1.33c0-3.2-1.27-4.96-7.19-4.96-1.45,0-2.66,0-3.45.06,0,1.94,0,11.49.18,15.48,1.33.06,2.66.24,4.05.24,9.61,0,11.61-3.02,13.6-6.77l1.09.55Z" style="fill: #fff;"/>
      <path d="m193.2,106.96c1.21,0,1.63-.48,2.6-1.33,1.94-1.75,14.57-15.24,14.81-15.48-1.15-1.39-5.86-7.56-11.61-14.93-3.33-4.23-3.57-4.11-5.2-4.53v-.54c3.08.12,6.17.24,9.25.24,2.6,0,5.38-.12,7.92-.24v.54c-.73.12-1.57.3-1.57,1.21,0,2.54,6.59,10.58,7.86,12.33,1.75-2.06,7.44-9.92,7.44-11.79,0-1.63-1.09-1.63-1.99-1.75v-.54c2.17.06,4.35.24,6.59.24,1.99,0,4.11-.12,6.05-.24v.54c-.6.06-1.33.3-2.18.67-1.45.6-9.37,10.1-14.33,14.75,1.21,1.45,7.32,9.13,13.54,16.56,3.27,3.93,3.63,4.11,5.14,4.29v.55c-3.27-.24-6.59-.24-9.86-.24-2.48,0-5.02.12-7.5.24v-.55c.85,0,1.57-.12,1.57-1.15,0-1.94-8.22-11.49-9.67-13.79-1.57,1.94-8.1,10.28-8.1,13.54,0,1.39,1.21,1.39,1.99,1.39v.55c-2.06-.12-4.05-.24-6.11-.24-2.24,0-4.47.12-6.65.24v-.55Z" style="fill: #fff;"/>
      <path d="m240.48,74.25c-1.33,0-2.27-.99-2.27-2.31,0-1.39,1.05-2.31,2.27-2.31s2.26.92,2.26,2.31-1.05,2.31-2.26,2.31m0-4.22c-1,0-1.78.78-1.78,1.91,0,1.05.68,1.91,1.78,1.91.99,0,1.77-.78,1.77-1.91s-.78-1.91-1.77-1.91m-.46,3.23h-.42v-2.55h.97c.62,0,.93.22.93.73,0,.46-.28.65-.67.7l.72,1.12h-.48l-.66-1.09h-.4v1.09Zm.47-1.45c.31,0,.59-.03.59-.4,0-.31-.3-.35-.56-.35h-.51v.75h.47Z" style="fill: #fff;"/>
    </g>
  </g>
</svg>